<mxfile host="app.diagrams.net" modified="2023-12-07T08:20:13.295Z" agent="Mozilla/5.0 (Windows NT 10.0; Win64; x64) AppleWebKit/537.36 (KHTML, like Gecko) Chrome/119.0.0.0 Safari/537.36" etag="C_CXVTsndCt7VaDM-TNB" version="22.1.7" type="device">
  <diagram name="Page-1" id="v8oBOwMQWThnhQ1afWWh">
    <mxGraphModel dx="1235" dy="684" grid="1" gridSize="10" guides="1" tooltips="1" connect="1" arrows="1" fold="1" page="1" pageScale="1" pageWidth="827" pageHeight="1169" math="0" shadow="0">
      <root>
        <mxCell id="0" />
        <mxCell id="1" parent="0" />
        <mxCell id="oHATxd_1pVWw8CiEd6mL-13" value="Documentation of payment method" style="swimlane;childLayout=stackLayout;resizeParent=1;resizeParentMax=0;startSize=20;html=1;" parent="1" vertex="1">
          <mxGeometry x="70" y="20" width="960" height="1240" as="geometry" />
        </mxCell>
        <mxCell id="oHATxd_1pVWw8CiEd6mL-14" value="User" style="swimlane;startSize=20;html=1;" parent="oHATxd_1pVWw8CiEd6mL-13" vertex="1">
          <mxGeometry y="20" width="360" height="1220" as="geometry" />
        </mxCell>
        <mxCell id="oHATxd_1pVWw8CiEd6mL-21" value="" style="ellipse;html=1;shape=startState;fillColor=#000000;strokeColor=#ff0000;" parent="oHATxd_1pVWw8CiEd6mL-14" vertex="1">
          <mxGeometry x="70" y="30" width="30" height="30" as="geometry" />
        </mxCell>
        <mxCell id="oHATxd_1pVWw8CiEd6mL-22" value="" style="edgeStyle=orthogonalEdgeStyle;html=1;verticalAlign=bottom;endArrow=open;endSize=8;strokeColor=#ff0000;rounded=0;" parent="oHATxd_1pVWw8CiEd6mL-14" source="oHATxd_1pVWw8CiEd6mL-21" edge="1">
          <mxGeometry relative="1" as="geometry">
            <mxPoint x="85" y="120" as="targetPoint" />
          </mxGeometry>
        </mxCell>
        <mxCell id="oHATxd_1pVWw8CiEd6mL-23" value="Add payment System" style="rounded=1;whiteSpace=wrap;html=1;arcSize=40;" parent="oHATxd_1pVWw8CiEd6mL-14" vertex="1">
          <mxGeometry x="25" y="120" width="120" height="40" as="geometry" />
        </mxCell>
        <mxCell id="oHATxd_1pVWw8CiEd6mL-37" value="Fill The Transaction Information" style="rounded=1;whiteSpace=wrap;html=1;arcSize=40;" parent="oHATxd_1pVWw8CiEd6mL-14" vertex="1">
          <mxGeometry x="25" y="220" width="120" height="40" as="geometry" />
        </mxCell>
        <mxCell id="oHATxd_1pVWw8CiEd6mL-39" value="Choose a payment method" style="rounded=1;whiteSpace=wrap;html=1;arcSize=40;" parent="oHATxd_1pVWw8CiEd6mL-14" vertex="1">
          <mxGeometry x="25" y="340" width="120" height="40" as="geometry" />
        </mxCell>
        <mxCell id="oHATxd_1pVWw8CiEd6mL-40" value="" style="html=1;verticalAlign=bottom;endArrow=block;curved=0;rounded=0;entryX=0.5;entryY=0;entryDx=0;entryDy=0;exitX=0.5;exitY=1;exitDx=0;exitDy=0;" parent="oHATxd_1pVWw8CiEd6mL-14" source="oHATxd_1pVWw8CiEd6mL-37" target="oHATxd_1pVWw8CiEd6mL-39" edge="1">
          <mxGeometry width="80" relative="1" as="geometry">
            <mxPoint x="126" y="390" as="sourcePoint" />
            <mxPoint x="126" y="450" as="targetPoint" />
          </mxGeometry>
        </mxCell>
        <mxCell id="oHATxd_1pVWw8CiEd6mL-42" value="" style="rhombus;whiteSpace=wrap;html=1;fillColor=#dae8fc;strokeColor=#6c8ebf;" parent="oHATxd_1pVWw8CiEd6mL-14" vertex="1">
          <mxGeometry x="145" y="440" width="80" height="40" as="geometry" />
        </mxCell>
        <mxCell id="oHATxd_1pVWw8CiEd6mL-46" value="" style="html=1;verticalAlign=bottom;endArrow=block;curved=0;rounded=0;entryX=0.5;entryY=0;entryDx=0;entryDy=0;exitX=0.5;exitY=1;exitDx=0;exitDy=0;" parent="oHATxd_1pVWw8CiEd6mL-14" source="oHATxd_1pVWw8CiEd6mL-39" target="oHATxd_1pVWw8CiEd6mL-42" edge="1">
          <mxGeometry width="80" relative="1" as="geometry">
            <mxPoint x="190" y="360" as="sourcePoint" />
            <mxPoint x="190" y="420" as="targetPoint" />
            <Array as="points">
              <mxPoint x="85" y="420" />
              <mxPoint x="185" y="420" />
            </Array>
          </mxGeometry>
        </mxCell>
        <mxCell id="oHATxd_1pVWw8CiEd6mL-49" value="Electronic Wallet" style="rounded=1;whiteSpace=wrap;html=1;arcSize=40;" parent="oHATxd_1pVWw8CiEd6mL-14" vertex="1">
          <mxGeometry x="260" y="530" width="80" height="35" as="geometry" />
        </mxCell>
        <mxCell id="oHATxd_1pVWw8CiEd6mL-50" value="cash" style="rounded=1;whiteSpace=wrap;html=1;arcSize=40;" parent="oHATxd_1pVWw8CiEd6mL-14" vertex="1">
          <mxGeometry x="20" y="530" width="80" height="35" as="geometry" />
        </mxCell>
        <mxCell id="oHATxd_1pVWw8CiEd6mL-51" value="Credit Card" style="rounded=1;whiteSpace=wrap;html=1;arcSize=40;" parent="oHATxd_1pVWw8CiEd6mL-14" vertex="1">
          <mxGeometry x="145" y="530" width="80" height="35" as="geometry" />
        </mxCell>
        <mxCell id="oHATxd_1pVWw8CiEd6mL-53" value="" style="html=1;verticalAlign=bottom;endArrow=block;curved=0;rounded=0;entryX=0.5;entryY=0;entryDx=0;entryDy=0;exitX=0.5;exitY=1;exitDx=0;exitDy=0;" parent="oHATxd_1pVWw8CiEd6mL-14" source="oHATxd_1pVWw8CiEd6mL-42" target="oHATxd_1pVWw8CiEd6mL-51" edge="1">
          <mxGeometry width="80" relative="1" as="geometry">
            <mxPoint x="240" y="410" as="sourcePoint" />
            <mxPoint x="240" y="490" as="targetPoint" />
          </mxGeometry>
        </mxCell>
        <mxCell id="oHATxd_1pVWw8CiEd6mL-54" value="" style="html=1;verticalAlign=bottom;endArrow=block;curved=0;rounded=0;entryX=0.5;entryY=0;entryDx=0;entryDy=0;exitX=0;exitY=0.5;exitDx=0;exitDy=0;" parent="oHATxd_1pVWw8CiEd6mL-14" source="oHATxd_1pVWw8CiEd6mL-42" target="oHATxd_1pVWw8CiEd6mL-50" edge="1">
          <mxGeometry width="80" relative="1" as="geometry">
            <mxPoint x="70" y="430" as="sourcePoint" />
            <mxPoint x="70" y="510" as="targetPoint" />
            <Array as="points">
              <mxPoint x="60" y="460" />
            </Array>
          </mxGeometry>
        </mxCell>
        <mxCell id="oHATxd_1pVWw8CiEd6mL-55" value="" style="html=1;verticalAlign=bottom;endArrow=block;curved=0;rounded=0;entryX=0.5;entryY=0;entryDx=0;entryDy=0;exitX=1;exitY=0.5;exitDx=0;exitDy=0;" parent="oHATxd_1pVWw8CiEd6mL-14" source="oHATxd_1pVWw8CiEd6mL-42" target="oHATxd_1pVWw8CiEd6mL-49" edge="1">
          <mxGeometry width="80" relative="1" as="geometry">
            <mxPoint x="195" y="490" as="sourcePoint" />
            <mxPoint x="195" y="540" as="targetPoint" />
            <Array as="points">
              <mxPoint x="300" y="460" />
            </Array>
          </mxGeometry>
        </mxCell>
        <mxCell id="oHATxd_1pVWw8CiEd6mL-63" value="" style="html=1;verticalAlign=bottom;endArrow=block;curved=0;rounded=0;entryX=0;entryY=0.5;entryDx=0;entryDy=0;" parent="oHATxd_1pVWw8CiEd6mL-13" source="oHATxd_1pVWw8CiEd6mL-49" target="oHATxd_1pVWw8CiEd6mL-61" edge="1">
          <mxGeometry width="80" relative="1" as="geometry">
            <mxPoint x="300" y="590" as="sourcePoint" />
            <mxPoint x="770" y="655" as="targetPoint" />
            <Array as="points">
              <mxPoint x="300" y="620" />
            </Array>
          </mxGeometry>
        </mxCell>
        <mxCell id="oHATxd_1pVWw8CiEd6mL-15" value="System" style="swimlane;startSize=20;html=1;" parent="oHATxd_1pVWw8CiEd6mL-13" vertex="1">
          <mxGeometry x="360" y="20" width="260" height="1220" as="geometry" />
        </mxCell>
        <mxCell id="oHATxd_1pVWw8CiEd6mL-25" value="Ensure that the user has an account" style="rounded=1;whiteSpace=wrap;html=1;arcSize=40;" parent="oHATxd_1pVWw8CiEd6mL-15" vertex="1">
          <mxGeometry x="70" y="120" width="120" height="40" as="geometry" />
        </mxCell>
        <mxCell id="oHATxd_1pVWw8CiEd6mL-35" value="" style="html=1;verticalAlign=bottom;endArrow=block;curved=0;rounded=0;entryX=0.5;entryY=0;entryDx=0;entryDy=0;exitX=0.5;exitY=1;exitDx=0;exitDy=0;" parent="oHATxd_1pVWw8CiEd6mL-15" source="oHATxd_1pVWw8CiEd6mL-25" target="oHATxd_1pVWw8CiEd6mL-36" edge="1">
          <mxGeometry width="80" relative="1" as="geometry">
            <mxPoint x="36" y="200" as="sourcePoint" />
            <mxPoint x="181" y="200" as="targetPoint" />
          </mxGeometry>
        </mxCell>
        <mxCell id="oHATxd_1pVWw8CiEd6mL-36" value="Create a New Transaction" style="rounded=1;whiteSpace=wrap;html=1;arcSize=40;" parent="oHATxd_1pVWw8CiEd6mL-15" vertex="1">
          <mxGeometry x="70" y="220" width="120" height="40" as="geometry" />
        </mxCell>
        <mxCell id="oHATxd_1pVWw8CiEd6mL-59" value="Completion of the money transfer" style="rounded=1;whiteSpace=wrap;html=1;arcSize=40;" parent="oHATxd_1pVWw8CiEd6mL-15" vertex="1">
          <mxGeometry x="70" y="700" width="140" height="50" as="geometry" />
        </mxCell>
        <mxCell id="oHATxd_1pVWw8CiEd6mL-66" value="" style="ellipse;html=1;shape=endState;fillColor=#000000;strokeColor=#ff0000;" parent="oHATxd_1pVWw8CiEd6mL-15" vertex="1">
          <mxGeometry x="110" y="820" width="30" height="30" as="geometry" />
        </mxCell>
        <mxCell id="oHATxd_1pVWw8CiEd6mL-67" value="" style="html=1;verticalAlign=bottom;endArrow=block;curved=0;rounded=0;exitX=0.416;exitY=1.026;exitDx=0;exitDy=0;exitPerimeter=0;fillColor=#f8cecc;strokeColor=#B85450;" parent="oHATxd_1pVWw8CiEd6mL-15" source="oHATxd_1pVWw8CiEd6mL-59" target="oHATxd_1pVWw8CiEd6mL-66" edge="1">
          <mxGeometry width="80" relative="1" as="geometry">
            <mxPoint x="129.41000000000003" y="760" as="sourcePoint" />
            <mxPoint x="129.41000000000003" y="810" as="targetPoint" />
          </mxGeometry>
        </mxCell>
        <mxCell id="oHATxd_1pVWw8CiEd6mL-70" value="" style="rhombus;whiteSpace=wrap;html=1;fillColor=#dae8fc;strokeColor=#6c8ebf;" parent="oHATxd_1pVWw8CiEd6mL-15" vertex="1">
          <mxGeometry x="90" y="900" width="80" height="40" as="geometry" />
        </mxCell>
        <mxCell id="oHATxd_1pVWw8CiEd6mL-71" value="Informing the user to verify the accuracy of the information" style="rounded=1;whiteSpace=wrap;html=1;arcSize=40;" parent="oHATxd_1pVWw8CiEd6mL-15" vertex="1">
          <mxGeometry x="60" y="1070" width="140" height="50" as="geometry" />
        </mxCell>
        <mxCell id="oHATxd_1pVWw8CiEd6mL-72" value="Failure to complete the financial transfer" style="rounded=1;whiteSpace=wrap;html=1;arcSize=40;" parent="oHATxd_1pVWw8CiEd6mL-15" vertex="1">
          <mxGeometry x="60" y="980" width="140" height="50" as="geometry" />
        </mxCell>
        <mxCell id="oHATxd_1pVWw8CiEd6mL-74" value="" style="html=1;verticalAlign=bottom;endArrow=block;curved=0;rounded=0;fillColor=#f8cecc;strokeColor=#B85450;entryX=0.488;entryY=0.333;entryDx=0;entryDy=0;entryPerimeter=0;exitX=0.548;exitY=1.063;exitDx=0;exitDy=0;exitPerimeter=0;" parent="oHATxd_1pVWw8CiEd6mL-15" source="oHATxd_1pVWw8CiEd6mL-71" target="oHATxd_1pVWw8CiEd6mL-73" edge="1">
          <mxGeometry width="80" relative="1" as="geometry">
            <mxPoint x="129" y="1120" as="sourcePoint" />
            <mxPoint x="131" y="1170" as="targetPoint" />
          </mxGeometry>
        </mxCell>
        <mxCell id="oHATxd_1pVWw8CiEd6mL-73" value="" style="shape=umlDestroy;whiteSpace=wrap;html=1;strokeWidth=3;targetShapes=umlLifeline;fillColor=#f8cecc;strokeColor=#b85450;" parent="oHATxd_1pVWw8CiEd6mL-15" vertex="1">
          <mxGeometry x="125" y="1160" width="30" height="30" as="geometry" />
        </mxCell>
        <mxCell id="oHATxd_1pVWw8CiEd6mL-78" value="" style="html=1;verticalAlign=bottom;endArrow=block;curved=0;rounded=0;entryX=0.5;entryY=0;entryDx=0;entryDy=0;exitX=0.5;exitY=1;exitDx=0;exitDy=0;" parent="oHATxd_1pVWw8CiEd6mL-15" source="oHATxd_1pVWw8CiEd6mL-70" target="oHATxd_1pVWw8CiEd6mL-72" edge="1">
          <mxGeometry width="80" relative="1" as="geometry">
            <mxPoint x="220" y="940" as="sourcePoint" />
            <mxPoint x="220" y="990" as="targetPoint" />
          </mxGeometry>
        </mxCell>
        <mxCell id="oHATxd_1pVWw8CiEd6mL-77" value="" style="html=1;verticalAlign=bottom;endArrow=block;curved=0;rounded=0;entryX=0.5;entryY=0;entryDx=0;entryDy=0;exitX=0.5;exitY=1;exitDx=0;exitDy=0;" parent="oHATxd_1pVWw8CiEd6mL-15" source="oHATxd_1pVWw8CiEd6mL-72" target="oHATxd_1pVWw8CiEd6mL-71" edge="1">
          <mxGeometry width="80" relative="1" as="geometry">
            <mxPoint x="220" y="1010" as="sourcePoint" />
            <mxPoint x="220" y="1060" as="targetPoint" />
          </mxGeometry>
        </mxCell>
        <mxCell id="oHATxd_1pVWw8CiEd6mL-16" value="Credit Card Payment" style="swimlane;startSize=20;html=1;" parent="oHATxd_1pVWw8CiEd6mL-13" vertex="1">
          <mxGeometry x="620" y="20" width="150" height="1220" as="geometry" />
        </mxCell>
        <mxCell id="oHATxd_1pVWw8CiEd6mL-60" value="" style="rhombus;whiteSpace=wrap;html=1;fillColor=#dae8fc;strokeColor=#6c8ebf;" parent="oHATxd_1pVWw8CiEd6mL-16" vertex="1">
          <mxGeometry x="35" y="620" width="80" height="40" as="geometry" />
        </mxCell>
        <mxCell id="oHATxd_1pVWw8CiEd6mL-17" value="Electronic Wallet Payment" style="swimlane;startSize=20;html=1;" parent="oHATxd_1pVWw8CiEd6mL-13" vertex="1">
          <mxGeometry x="770" y="20" width="190" height="1220" as="geometry" />
        </mxCell>
        <mxCell id="oHATxd_1pVWw8CiEd6mL-61" value="" style="rhombus;whiteSpace=wrap;html=1;fillColor=#dae8fc;strokeColor=#6c8ebf;" parent="oHATxd_1pVWw8CiEd6mL-17" vertex="1">
          <mxGeometry x="55" y="580" width="80" height="40" as="geometry" />
        </mxCell>
        <mxCell id="oHATxd_1pVWw8CiEd6mL-26" value="" style="html=1;verticalAlign=bottom;endArrow=block;curved=0;rounded=0;entryX=0;entryY=0.5;entryDx=0;entryDy=0;exitX=1;exitY=0.5;exitDx=0;exitDy=0;" parent="oHATxd_1pVWw8CiEd6mL-13" source="oHATxd_1pVWw8CiEd6mL-23" target="oHATxd_1pVWw8CiEd6mL-25" edge="1">
          <mxGeometry width="80" relative="1" as="geometry">
            <mxPoint x="156" y="160" as="sourcePoint" />
            <mxPoint x="250" y="110" as="targetPoint" />
          </mxGeometry>
        </mxCell>
        <mxCell id="oHATxd_1pVWw8CiEd6mL-38" value="" style="html=1;verticalAlign=bottom;endArrow=block;curved=0;rounded=0;entryX=1;entryY=0.5;entryDx=0;entryDy=0;exitX=0;exitY=0.5;exitDx=0;exitDy=0;" parent="oHATxd_1pVWw8CiEd6mL-13" source="oHATxd_1pVWw8CiEd6mL-36" target="oHATxd_1pVWw8CiEd6mL-37" edge="1">
          <mxGeometry width="80" relative="1" as="geometry">
            <mxPoint x="136" y="210" as="sourcePoint" />
            <mxPoint x="281" y="210" as="targetPoint" />
          </mxGeometry>
        </mxCell>
        <mxCell id="oHATxd_1pVWw8CiEd6mL-58" value="" style="html=1;verticalAlign=bottom;endArrow=block;curved=0;rounded=0;exitX=0.5;exitY=1;exitDx=0;exitDy=0;entryX=0;entryY=0.5;entryDx=0;entryDy=0;" parent="oHATxd_1pVWw8CiEd6mL-13" source="oHATxd_1pVWw8CiEd6mL-50" target="oHATxd_1pVWw8CiEd6mL-59" edge="1">
          <mxGeometry width="80" relative="1" as="geometry">
            <mxPoint x="59.47" y="610" as="sourcePoint" />
            <mxPoint x="450" y="660" as="targetPoint" />
            <Array as="points">
              <mxPoint x="60" y="750" />
            </Array>
          </mxGeometry>
        </mxCell>
        <mxCell id="oHATxd_1pVWw8CiEd6mL-62" value="" style="html=1;verticalAlign=bottom;endArrow=block;curved=0;rounded=0;exitX=0.5;exitY=1;exitDx=0;exitDy=0;entryX=0;entryY=0.5;entryDx=0;entryDy=0;" parent="oHATxd_1pVWw8CiEd6mL-13" source="oHATxd_1pVWw8CiEd6mL-51" target="oHATxd_1pVWw8CiEd6mL-60" edge="1">
          <mxGeometry width="80" relative="1" as="geometry">
            <mxPoint x="190" y="590" as="sourcePoint" />
            <mxPoint x="560" y="750" as="targetPoint" />
            <Array as="points">
              <mxPoint x="185" y="660" />
            </Array>
          </mxGeometry>
        </mxCell>
        <mxCell id="oHATxd_1pVWw8CiEd6mL-64" value="Request Accept" style="html=1;verticalAlign=bottom;endArrow=block;curved=0;rounded=0;exitX=0.5;exitY=1;exitDx=0;exitDy=0;entryX=1;entryY=0.5;entryDx=0;entryDy=0;" parent="oHATxd_1pVWw8CiEd6mL-13" source="oHATxd_1pVWw8CiEd6mL-60" target="oHATxd_1pVWw8CiEd6mL-59" edge="1">
          <mxGeometry width="80" relative="1" as="geometry">
            <mxPoint x="655" y="760" as="sourcePoint" />
            <mxPoint x="735" y="760" as="targetPoint" />
            <Array as="points">
              <mxPoint x="695" y="745" />
            </Array>
          </mxGeometry>
        </mxCell>
        <mxCell id="oHATxd_1pVWw8CiEd6mL-65" value="Request Accept" style="html=1;verticalAlign=bottom;endArrow=block;curved=0;rounded=0;exitX=0.5;exitY=1;exitDx=0;exitDy=0;entryX=1;entryY=1;entryDx=0;entryDy=0;" parent="oHATxd_1pVWw8CiEd6mL-13" source="oHATxd_1pVWw8CiEd6mL-61" target="oHATxd_1pVWw8CiEd6mL-59" edge="1">
          <mxGeometry width="80" relative="1" as="geometry">
            <mxPoint x="865" y="712.5" as="sourcePoint" />
            <mxPoint x="740" y="777.5" as="targetPoint" />
            <Array as="points">
              <mxPoint x="865" y="770" />
            </Array>
          </mxGeometry>
        </mxCell>
        <mxCell id="oHATxd_1pVWw8CiEd6mL-75" value="Request&amp;nbsp;Rejection" style="html=1;verticalAlign=bottom;endArrow=block;curved=0;rounded=0;entryX=1;entryY=0.5;entryDx=0;entryDy=0;exitX=1;exitY=0.5;exitDx=0;exitDy=0;" parent="oHATxd_1pVWw8CiEd6mL-13" source="oHATxd_1pVWw8CiEd6mL-60" target="oHATxd_1pVWw8CiEd6mL-70" edge="1">
          <mxGeometry width="80" relative="1" as="geometry">
            <mxPoint x="760" y="630" as="sourcePoint" />
            <mxPoint x="540" y="945" as="targetPoint" />
            <Array as="points">
              <mxPoint x="760" y="660" />
              <mxPoint x="760" y="940" />
            </Array>
          </mxGeometry>
        </mxCell>
        <mxCell id="oHATxd_1pVWw8CiEd6mL-76" value="Request&amp;nbsp;Rejection" style="html=1;verticalAlign=bottom;endArrow=block;curved=0;rounded=0;entryX=0.5;entryY=0;entryDx=0;entryDy=0;exitX=1;exitY=0.5;exitDx=0;exitDy=0;" parent="oHATxd_1pVWw8CiEd6mL-13" source="oHATxd_1pVWw8CiEd6mL-61" target="oHATxd_1pVWw8CiEd6mL-70" edge="1">
          <mxGeometry width="80" relative="1" as="geometry">
            <mxPoint x="915" y="670" as="sourcePoint" />
            <mxPoint x="720" y="960" as="targetPoint" />
            <Array as="points">
              <mxPoint x="940" y="620" />
              <mxPoint x="940" y="920" />
            </Array>
          </mxGeometry>
        </mxCell>
      </root>
    </mxGraphModel>
  </diagram>
</mxfile>
